<?xml version="1.0" standalone="no"?>
<!DOCTYPE svg PUBLIC "-//W3C//DTD SVG 20010904//EN"
 "http://www.w3.org/TR/2001/REC-SVG-20010904/DTD/svg10.dtd">
<svg version="1.0" xmlns="http://www.w3.org/2000/svg"
 width="700.000000pt" height="700.000000pt" viewBox="0 0 700.000000 700.000000"
 preserveAspectRatio="xMidYMid meet">
<metadata>
Created by potrace 1.14, written by Peter Selinger 2001-2017
</metadata>
<g transform="translate(0.000000,700.000000) scale(0.100000,-0.100000)"
fill="#000000" stroke="none">
<path d="M650 5283 c0 -6 14 -49 31 -95 36 -97 59 -161 129 -358 29 -80 62
-174 75 -210 57 -157 125 -349 139 -390 8 -25 27 -76 41 -115 15 -38 30 -81
35 -95 7 -24 140 -397 180 -505 10 -27 37 -104 60 -170 23 -66 46 -131 52
-145 11 -26 39 -105 78 -220 12 -36 26 -74 31 -85 5 -11 29 -76 53 -145 58
-166 151 -428 182 -515 14 -38 50 -137 79 -220 96 -269 153 -428 200 -560 26
-71 55 -152 64 -180 l18 -50 694 0 694 0 41 110 c22 61 43 117 46 125 3 8 56
157 118 330 61 173 120 338 130 365 10 28 27 74 37 102 l18 53 692 -3 692 -3
22 61 c11 33 25 69 29 80 5 11 20 54 35 95 14 41 31 86 37 100 5 14 32 86 58
160 26 74 61 171 78 215 33 89 121 333 127 352 3 9 -152 12 -687 12 -379 0
-691 1 -693 3 -1 2 28 89 66 193 38 105 78 215 88 245 112 313 141 393 146
398 3 3 319 5 703 3 l697 -2 174 478 c200 548 213 585 206 591 -2 2 -630 5
-1394 6 -1228 1 -1391 -1 -1394 -14 -3 -8 -39 -109 -82 -225 -42 -115 -78
-214 -79 -220 -2 -5 -8 -23 -14 -38 -7 -16 -12 -30 -12 -33 0 -4 -151 -425
-254 -709 -24 -66 -63 -174 -86 -240 -23 -66 -55 -154 -70 -195 -16 -41 -60
-162 -98 -269 -64 -180 -70 -192 -80 -165 -21 59 -84 231 -111 309 -70 196
-346 960 -380 1055 -22 58 -71 195 -111 305 -39 110 -82 229 -95 265 -13 36
-32 89 -43 119 l-19 55 -687 0 c-516 1 -686 -2 -686 -11z"/>
</g>
</svg>
